<svg id="Warstwa_1" data-name="Warstwa 1" xmlns="http://www.w3.org/2000/svg" viewBox="0 0 38.98 27.01"><defs><style>.cls-1{fill:#18161c;}</style></defs><path class="cls-1" d="M713.8,683.47a.94.94,0,0,1-.37-.07l-16-6.32a1,1,0,0,1-.64-.93V666.8a1,1,0,0,1,.64-.93l16-6.32a1,1,0,0,1,.93.11,1,1,0,0,1,.44.83v22a1,1,0,0,1-.44.82A1,1,0,0,1,713.8,683.47Zm-15.06-8L712.8,681V662l-14.06,5.54Z" transform="translate(-689.42 -659.48)"/><path class="cls-1" d="M713.8,676.34a1,1,0,0,1-1-1v-7.73a1,1,0,0,1,1.36-.93l3.67,1.44a1,1,0,0,1,.63.93v4.85a1,1,0,0,1-.63.93l-3.67,1.44A.89.89,0,0,1,713.8,676.34Zm1-7.26v4.79l1.66-.65v-3.49Z" transform="translate(-689.42 -659.48)"/><path class="cls-1" d="M697.74,677.15h-7.32a1,1,0,0,1-1-1V666.8a1,1,0,0,1,1-1h7.32a1,1,0,0,1,1,1v9.35A1,1,0,0,1,697.74,677.15Zm-6.32-2h5.32V667.8h-5.32Z" transform="translate(-689.42 -659.48)"/><path class="cls-1" d="M695.91,686.5h-3.66a1,1,0,0,1-1-1v-9.35a1,1,0,0,1,1-1h3.66a1,1,0,0,1,1,1v9.35A1,1,0,0,1,695.91,686.5Zm-2.66-2h1.66v-7.35h-1.66Z" transform="translate(-689.42 -659.48)"/><path class="cls-1" d="M727.4,672.48h-4.95a1,1,0,0,1,0-2h4.95a1,1,0,1,1,0,2Z" transform="translate(-689.42 -659.48)"/><path class="cls-1" d="M722.52,666.64a1,1,0,0,1-.37-1.92l4.88-2a1,1,0,1,1,.75,1.85l-4.88,2A1,1,0,0,1,722.52,666.64Z" transform="translate(-689.42 -659.48)"/><path class="cls-1" d="M727.4,680.28a1.21,1.21,0,0,1-.37-.07l-4.88-2a1,1,0,1,1,.75-1.86l4.88,2a1,1,0,0,1-.38,1.93Z" transform="translate(-689.42 -659.48)"/></svg>