<svg id="Warstwa_1" data-name="Warstwa 1" xmlns="http://www.w3.org/2000/svg" viewBox="0 0 16 11.61"><defs><style>.cls-1{fill:#909090;}</style></defs><path class="cls-1" d="M615,798.78a.47.47,0,0,1-.35-.15.5.5,0,0,1,0-.71l5.3-5.3a.5.5,0,0,1,.71.71l-5.31,5.3A.47.47,0,0,1,615,798.78Z" transform="translate(-614.45 -792.47)"/><path class="cls-1" d="M620.25,804.08a.54.54,0,0,1-.35-.14l-5.3-5.31a.5.5,0,0,1,0-.71.5.5,0,0,1,.7,0l5.31,5.31a.51.51,0,0,1,0,.71A.54.54,0,0,1,620.25,804.08Z" transform="translate(-614.45 -792.47)"/><path class="cls-1" d="M630,798.78H615a.5.5,0,0,1-.5-.5.5.5,0,0,1,.5-.5h15a.5.5,0,0,1,.5.5A.5.5,0,0,1,630,798.78Z" transform="translate(-614.45 -792.47)"/></svg>