<svg id="Warstwa_1" data-name="Warstwa 1" xmlns="http://www.w3.org/2000/svg" viewBox="0 0 32 32"><defs><style>.cls-1{fill:#18161c;}</style></defs><path class="cls-1" d="M372.67,684.67h-30a1,1,0,0,1-1-1V666.75a1,1,0,0,1,2,0v15.92h28V666.75a1,1,0,0,1,2,0v16.92A1,1,0,0,1,372.67,684.67Z" transform="translate(-341.67 -652.67)"/><path class="cls-1" d="M372.67,663.66h-30a1,1,0,0,1-1-1v-9a1,1,0,0,1,1-1h30a1,1,0,0,1,1,1v9A1,1,0,0,1,372.67,663.66Zm-29-2h28v-7h-28Z" transform="translate(-341.67 -652.67)"/><path class="cls-1" d="M363,671.26H352.35a1,1,0,0,1-1-1v-3.51a1,1,0,0,1,1-1H363a1,1,0,0,1,1,1v3.51A1,1,0,0,1,363,671.26Zm-9.63-2H362v-1.51h-8.63Z" transform="translate(-341.67 -652.67)"/></svg>