<svg id="Warstwa_1" data-name="Warstwa 1" xmlns="http://www.w3.org/2000/svg" viewBox="0 0 32.64 32"><path d="M288.07,516a1,1,0,0,1-.44-.1l-5-2.4a1,1,0,0,1-.54-1.12l.71-3.14a13.13,13.13,0,0,1-1.52-1.81h-3.48a1,1,0,0,1-1-.78l-1.23-5.39a1,1,0,0,1,.54-1.12l2.9-1.41a12.94,12.94,0,0,1,.46-2.31l-2.16-2.72a1,1,0,0,1,0-1.25l3.45-4.32a1,1,0,0,1,1.21-.28l2.91,1.39a13,13,0,0,1,2.1-1.08l.78-3.38a1,1,0,0,1,1-.78h5.53a1,1,0,0,1,1,.77l.72,3.15a11.85,11.85,0,0,1,2.15,1l3.14-1.5a1,1,0,0,1,1.21.28L306,492a1,1,0,0,1,0,1.25l-2,2.52a12.7,12.7,0,0,1,.58,2.28l3.13,1.52a1,1,0,0,1,.54,1.12L307,506.06a1,1,0,0,1-1,.78h-3.23a12.36,12.36,0,0,1-1.42,1.88l.77,3.39a1,1,0,0,1-.54,1.12l-5,2.4a1,1,0,0,1-1.22-.28l-2-2.51a12.42,12.42,0,0,1-2.36.06l-2.17,2.72A1,1,0,0,1,288.07,516Zm-3.83-4,3.54,1.7,2-2.5a1,1,0,0,1,.89-.37,10.49,10.49,0,0,0,3-.09,1,1,0,0,1,.94.36l1.88,2.34,3.54-1.71-.7-3.13a1,1,0,0,1,.26-.93,10.84,10.84,0,0,0,1.78-2.36,1,1,0,0,1,.87-.51h3l.87-3.84-2.89-1.4a1,1,0,0,1-.56-.78,10.39,10.39,0,0,0-.74-2.86,1,1,0,0,1,.15-1l1.86-2.34-2.46-3.08-2.9,1.39a1,1,0,0,1-1-.06,10.64,10.64,0,0,0-2.69-1.2,1,1,0,0,1-.7-.74l-.67-2.92h-3.94l-.72,3.13a1,1,0,0,1-.64.72,10.59,10.59,0,0,0-2.63,1.36,1,1,0,0,1-1,.08l-2.7-1.29-2.46,3.08,2,2.51a1,1,0,0,1,.16,1,11,11,0,0,0-.57,2.9,1,1,0,0,1-.56.84l-2.7,1.31.87,3.84h3.22a1,1,0,0,1,.84.46,10.9,10.9,0,0,0,1.91,2.26,1,1,0,0,1,.31,1ZM306,505.84h0Z" transform="translate(-275.6 -484)"/><path d="M291.85,506.85a6.77,6.77,0,1,1,6.77-6.77A6.77,6.77,0,0,1,291.85,506.85Zm0-11.54a4.77,4.77,0,1,0,4.77,4.77A4.78,4.78,0,0,0,291.85,495.31Z" transform="translate(-275.6 -484)"/></svg>