<svg id="Warstwa_1" data-name="Warstwa 1" xmlns="http://www.w3.org/2000/svg" viewBox="0 0 32 27.69"><defs><style>.cls-1{fill:#18161c;}</style></defs><path class="cls-1" d="M736.17,735.07a1,1,0,0,1-.48-.12l-5.25-2.83H723.8a1,1,0,0,1-1-1v-5.24a1,1,0,0,1,1-1h8.87v-5.62a1,1,0,0,1,1-1h6.24a1,1,0,0,1,1,1v11.86a1,1,0,0,1-1,1h-2.74v2a1,1,0,0,1-.49.85A1,1,0,0,1,736.17,735.07Zm-11.37-5h5.89a1,1,0,0,1,.47.12l4,2.15v-1.27a1,1,0,0,1,1-1h2.74v-9.86h-4.24v5.62a1,1,0,0,1-1,1H724.8Z" transform="translate(-708.91 -707.38)"/><path class="cls-1" d="M715.43,731.22a1,1,0,0,1-.51-.14,1,1,0,0,1-.49-.86v-3.34h-4.52a1,1,0,0,1-1-1v-17.5a1,1,0,0,1,1-1h23.76a1,1,0,0,1,1,1v17.5a1,1,0,0,1-1,1h-9.9l-7.87,4.22A1,1,0,0,1,715.43,731.22Zm-4.52-6.34h4.52a1,1,0,0,1,1,1v2.67l6.62-3.55a1,1,0,0,1,.47-.12h9.15v-15.5H710.91Z" transform="translate(-708.91 -707.38)"/><path class="cls-1" d="M727.84,715.21h-12.1a1,1,0,0,1,0-2h12.1a1,1,0,1,1,0,2Z" transform="translate(-708.91 -707.38)"/><path class="cls-1" d="M723.81,720.26h-8.07a1,1,0,0,1,0-2h8.07a1,1,0,0,1,0,2Z" transform="translate(-708.91 -707.38)"/></svg>