<svg id="Warstwa_1" data-name="Warstwa 1" xmlns="http://www.w3.org/2000/svg" viewBox="0 0 24.86 32"><defs><style>.cls-1{fill:#909090;}</style></defs><path class="cls-1" d="M261.73,492.67H238.87a1,1,0,0,1-1-1v-18a1,1,0,0,1,1-1h22.86a1,1,0,0,1,1,1v18A1,1,0,0,1,261.73,492.67Zm-21.86-2h20.86v-16H239.87Z" transform="translate(-237.87 -460.67)"/><path class="cls-1" d="M258.33,470.7a1,1,0,0,1-1-1,7,7,0,1,0-14.06,0,1,1,0,0,1-2,0,9,9,0,1,1,18.06,0A1,1,0,0,1,258.33,470.7Z" transform="translate(-237.87 -460.67)"/><path class="cls-1" d="M242.27,474.71a1,1,0,0,1-1-1v-4a1,1,0,0,1,2,0v4A1,1,0,0,1,242.27,474.71Z" transform="translate(-237.87 -460.67)"/><path class="cls-1" d="M258.33,474.71a1,1,0,0,1-1-1v-4a1,1,0,0,1,2,0v4A1,1,0,0,1,258.33,474.71Z" transform="translate(-237.87 -460.67)"/><path class="cls-1" d="M250.3,486.12a3.43,3.43,0,1,1,3.43-3.43A3.44,3.44,0,0,1,250.3,486.12Zm0-4.86a1.43,1.43,0,1,0,1.43,1.43A1.43,1.43,0,0,0,250.3,481.26Z" transform="translate(-237.87 -460.67)"/><path class="cls-1" d="M250.3,488.44a1,1,0,0,1-1-1v-2.32a1,1,0,0,1,2,0v2.32A1,1,0,0,1,250.3,488.44Z" transform="translate(-237.87 -460.67)"/></svg>