<svg id="Warstwa_1" data-name="Warstwa 1" xmlns="http://www.w3.org/2000/svg" viewBox="0 0 29.21 32"><path d="M227.61,516a5.51,5.51,0,0,1-5.5-5.5,1,1,0,0,1,1-1h9a1,1,0,0,1,1,1A5.51,5.51,0,0,1,227.61,516Zm-3.35-4.5a3.49,3.49,0,0,0,6.7,0Z" transform="translate(-213 -484)"/><path d="M241.22,511.5H214a1,1,0,0,1-.85-.48,1,1,0,0,1,0-1l3.44-6.61v-8.37a11.06,11.06,0,1,1,22.11,0v8.37L242.1,510a1,1,0,0,1-.88,1.46Zm-25.57-2h23.92l-2.79-5.36a1,1,0,0,1-.11-.46v-8.62a9.06,9.06,0,1,0-18.11,0v8.62a.93.93,0,0,1-.12.46Z" transform="translate(-213 -484)"/></svg>